<svg width="690" height="470" viewBox="0 0 690 470" fill="none" xmlns="http://www.w3.org/2000/svg">
<path d="M61 30C61 13.4315 74.4315 0 91 0H599C615.569 0 629 13.4315 629 30V450H61V30Z" fill="#EEEEEE"/>
<path d="M61 30C61 13.4315 74.4315 0 91 0H599C615.569 0 629 13.4315 629 30V450H61V30Z" fill="url(#paint0_linear_2_422)" fill-opacity="0.1" style="mix-blend-mode:multiply"/>
<path d="M63.4285 30C63.4285 14.7727 75.7727 2.42851 91 2.42851H599C614.227 2.42851 626.571 14.7727 626.571 30V447.572H63.4285V30Z" stroke="white" stroke-opacity="0.25" stroke-width="4.85701" style="mix-blend-mode:soft-light"/>
<path d="M0 445H690C690 458.807 678.807 470 665 470H25C11.1929 470 0 458.807 0 445Z" fill="url(#paint1_linear_2_422)"/>
<path d="M245 445H445C445 450.523 440.523 455 435 455H255C249.477 455 245 450.523 245 445Z" fill="#EEEEEE"/>
<path d="M245 445H445C445 450.523 440.523 455 435 455H255C249.477 455 245 450.523 245 445Z" fill="url(#paint2_linear_2_422)" fill-opacity="0.1" style="mix-blend-mode:multiply"/>
<rect x="91" y="30" width="508" height="390" fill="#0B162B"/>
<mask id="mask0_2_422" style="mask-type:alpha" maskUnits="userSpaceOnUse" x="91" y="30" width="508" height="390">
<rect x="91" y="30" width="508" height="390" fill="white"/>
</mask>
<g mask="url(#mask0_2_422)">
</g>
<defs>
<linearGradient id="paint0_linear_2_422" x1="358.174" y1="450" x2="358.174" y2="429.125" gradientUnits="userSpaceOnUse">
<stop/>
<stop offset="1" stop-opacity="0.01"/>
</linearGradient>
<linearGradient id="paint1_linear_2_422" x1="689.106" y1="469.935" x2="689.106" y2="445" gradientUnits="userSpaceOnUse">
<stop stop-color="#D0D0D0"/>
<stop offset="1" stop-color="#E7E7E7"/>
</linearGradient>
<linearGradient id="paint2_linear_2_422" x1="349.639" y1="455" x2="349.639" y2="454.536" gradientUnits="userSpaceOnUse">
<stop/>
<stop offset="1" stop-opacity="0.01"/>
</linearGradient>
</defs>
</svg>
