<svg width="50" height="48" viewBox="0 0 50 48" fill="none" xmlns="http://www.w3.org/2000/svg">
<path fill-rule="evenodd" clip-rule="evenodd" d="M49.3061 22.2723L47.1936 20.0789C45.6571 18.4831 44.9378 16.2634 45.2484 14.0653L45.6738 11.0441C45.8602 9.71944 44.9665 8.48599 43.6545 8.25322L40.6627 7.72529C38.4857 7.34133 36.605 5.9711 35.5679 4.00815L34.1436 1.31328C33.5199 0.137431 32.0742 -0.33531 30.8793 0.252616L28.1503 1.59165C26.1645 2.56593 23.8394 2.56593 21.8535 1.59165L19.1222 0.252616C17.9273 -0.33531 16.4816 0.137431 15.8579 1.31808L14.4336 4.01295C13.3965 5.9759 11.5182 7.34613 9.33884 7.73009L6.34697 8.25802C5.03504 8.48839 4.1413 9.72184 4.3277 11.0465L4.75306 14.0677C5.06371 16.2658 4.34442 18.4855 2.80786 20.0813L0.695395 22.2747C-0.231798 23.237 -0.231798 24.7608 0.695395 25.723L2.80786 27.9164C4.34442 29.5122 5.06371 31.7319 4.75306 33.93L4.3277 36.9512C4.1413 38.2759 5.03504 39.5093 6.34697 39.7421L9.33884 40.27C11.5158 40.654 13.3965 42.0242 14.4336 43.9872L15.8579 46.682C16.4816 47.8627 17.9273 48.3354 19.1245 47.7475L21.8535 46.4085C23.8394 45.4342 26.1645 45.4342 28.1503 46.4085L30.8793 47.7475C32.0766 48.3354 33.5199 47.8627 34.146 46.682L35.5703 43.9872C36.6074 42.0266 38.4857 40.654 40.665 40.27L43.6569 39.7421C44.9688 39.5117 45.8626 38.2759 45.6762 36.9512L45.2508 33.93C44.9402 31.7319 45.6595 29.5122 47.196 27.9164L49.3085 25.723C50.2309 24.7608 50.2309 23.2346 49.3061 22.2723ZM20.9216 32.8934L15.4421 27.3908C14.5101 26.455 14.5101 24.9335 15.4421 23.9977C16.374 23.0618 17.8891 23.0618 18.8211 23.9977L22.6111 27.8036L33.5701 16.7986C34.5021 15.8627 36.0171 15.8627 36.9491 16.7986C37.8811 17.7344 37.8811 19.2558 36.9491 20.1917L24.3006 32.8934C23.3686 33.8292 21.8535 33.8292 20.9216 32.8934Z" fill="#5558DB"/>
</svg>
