<svg width="46" height="48" viewBox="0 0 46 48" fill="none" xmlns="http://www.w3.org/2000/svg">
<path fill-rule="evenodd" clip-rule="evenodd" d="M22.1746 0.0152531C21.4862 -0.0126025 20.7897 -0.00177198 20.0846 0.043378C10.3638 0.668876 2.89097 8.6656 2.08747 18.1653L2.05437 18.1231L0.0163384 42.8121C-0.213662 45.6081 2.01405 48.0012 4.84426 48.0012H26.2176C27.554 48.0012 28.6387 46.926 28.6387 45.6012C28.6387 44.2764 27.554 43.2012 26.2176 43.2012H21.3755C13.3521 43.2012 6.84919 36.7548 6.84919 28.8012V26.4012C6.84919 23.7492 9.01603 21.6012 11.6913 21.6012H31.0597C33.735 21.6012 35.9018 23.7492 35.9018 26.4012V33.6012H26.0048C25.4924 32.1646 24.1232 31.2033 22.586 31.2012C21.6229 31.2012 20.6992 31.5805 20.0181 32.2556C19.3371 32.9307 18.9545 33.8464 18.9545 34.8012C18.957 36.6875 20.428 38.252 22.326 38.3871C22.4123 38.3964 22.4992 38.4011 22.586 38.4012H38.3229H40.7439C43.4071 38.4012 45.586 36.2412 45.586 33.6012V28.8012C45.586 26.1612 43.4071 24.0012 40.7439 24.0012V19.2012C40.7439 8.86244 32.501 0.433085 22.1746 0.0152531Z" fill="#5558DB"/>
</svg>
